<svg width="auto" height="auto" viewBox="0 0 13 14" fill="none" xmlns="http://www.w3.org/2000/svg">
<path d="M10.1614 0.984375C9.63789 0.984375 9.11484 1.18716 8.70825 1.59375L0.911377 9.39062L0.802002 9.5L0.770752 9.65625L0.223877 12.4062L0.067627 13.1406L0.802002 12.9844L3.552 12.4375L3.70825 12.4062L3.81763 12.2969L11.6145 4.5C12.4277 3.68682 12.4277 2.40693 11.6145 1.59375C11.2079 1.18716 10.6849 0.984375 10.1614 0.984375ZM10.1614 1.9375C10.4129 1.9375 10.668 2.05346 10.9114 2.29688C11.3982 2.7837 11.3982 3.31005 10.9114 3.79688L10.552 4.14062L9.06763 2.65625L9.41138 2.29688C9.65479 2.05346 9.90986 1.9375 10.1614 1.9375ZM8.3645 3.35938L9.84888 4.84375L3.802 10.8906C3.47482 10.2503 2.95792 9.73343 2.31763 9.40625L8.3645 3.35938ZM1.677 10.2188C2.27654 10.4617 2.74656 10.9317 2.9895 11.5312L1.34888 11.8594L1.677 10.2188Z" fill="#6C6C6C"/>
</svg>
