<svg width="10" height="10" viewBox="0 0 10 10" fill="currentColor" xmlns="http://www.w3.org/2000/svg">
<path d="M9.1145 4.375H5.83325V1.09375C5.83325 0.75 5.552 0.46875 5.20825 0.46875C4.8645 0.46875 4.58325 0.75 4.58325 1.09375V4.375H1.302C0.958252 4.375 0.677002 4.65625 0.677002 5C0.677002 5.34375 0.958252 5.625 1.302 5.625H4.58325V8.90625C4.58325 9.25 4.8645 9.53125 5.20825 9.53125C5.552 9.53125 5.83325 9.25 5.83325 8.90625V5.625H9.1145C9.45825 5.625 9.7395 5.34375 9.7395 5C9.7395 4.65625 9.45825 4.375 9.1145 4.375Z" fill="#6C6C6C"/>
</svg>
